<?xml version="1.0" standalone="no"?>
<!DOCTYPE svg PUBLIC "-//W3C//DTD SVG 1.1//EN" "http://www.w3.org/Graphics/SVG/1.1/DTD/svg11.dtd" >
<svg>
<metadata>
Created by FontForge 20090914 at Fri Feb 24 10:42:50 2012
 By root
</metadata>
<defs>
<font id="DualisLite" horiz-adv-x="592" >
  <font-face 
    font-family="DualisLite"
    font-weight="400"
    font-stretch="normal"
    units-per-em="1000"
    panose-1="0 0 0 0 0 0 0 0 0 0"
    ascent="800"
    descent="-200"
    x-height="469"
    cap-height="701"
    bbox="-10.3333 -327 1030 771.533"
    underline-thickness="50"
    underline-position="-50"
    unicode-range="U+0002-U+0153"
  />
<missing-glyph horiz-adv-x="305" 
 />
    <glyph glyph-name=".notdef" horiz-adv-x="305" 
 />
    <glyph glyph-name="H" unicode="H" horiz-adv-x="724" 
d="M161 10q0 -3 -1 -5q-2 -4 -7 -4h-81q-7 0 -9 4q-1 2 0 5q4 134 4.5 256t-0.5 216q-1 109 -3 204q0 3 2 7l4.5 4.5t7.5 2.5h66q7 0 10 -3.5t5 -7.5t1 -10q-1 -36 -2 -79q-1 -37 -1.5 -87t-0.5 -109q0 -6 4 -8q2 -1 4 -1q56 -1 119 -2q54 -1 123.5 -0.5t144.5 3.5q2 0 5 2
q2 2 3.5 4.5t1.5 7.5q0 43 -0.5 91t-1.5 90q-1 48 -1 95q1 3 3 7l4.5 4.5t7.5 2.5h65q6 0 9 -3.5t5 -7.5t1 -10q-1 -95 -2 -203q-1 -93 -0.5 -213.5t2.5 -252.5q0 -3 -1 -5q-2 -4 -6 -4h-82q-6 0 -8 4q-1 2 -1 5q2 106 3 170t2 99q1 40 1 56q0 2 -1 4q-3 5 -4 5
q-75 1 -145.5 1.5t-126.5 0.5h-122q-2 0 -3 -1q-3 -2 -3 -6q0 -49 1 -104q1 -47 1.5 -106t2.5 -119z" />
    <glyph glyph-name="F" unicode="F" horiz-adv-x="483" 
d="M58 698q60 -1 126 -1h125t138 2q5 0 9 -2q3 -2 6 -4.5t3 -8.5v-22q0 -5 -3 -8t-6 -4q-4 -2 -8 -1q-58 1 -111.5 1h-95.5q-49 0 -93 -1q-4 0 -6 -4q-1 -2 -1 -3q-1 -35 -2 -76q-1 -35 -1 -83.5t1 -105.5q0 -4 4 -6q2 -1 4 0h78q35 0 77 0.5t84 2.5q4 0 8 -1q3 -1 6 -4
t3 -8v-27q0 -7 -8 -9q-4 -2 -8 -2l-81.5 2t-77.5 1h-82q-6 0 -8 -4q-1 -2 0 -4q0 -45 1 -96q1 -44 1.5 -99t2.5 -115q0 -3 -1 -5q-2 -4 -8 -4h-82q-6 0 -8 4q-1 2 -1 5q2 134 3 255.5t0 215.5q-1 110 -2 205q0 8 7 12q3 2 7 2z" />
    <glyph glyph-name="I" unicode="I" horiz-adv-x="340" 
d="M116 10q1 100 2 211q1 95 1 214.5t-2 243.5q-1 6 1 11q1 4 4 7.5t9 3.5h68q3 0 10.5 -1.5t7.5 -20.5q-3 -120 -3.5 -238t0.5 -215q1 -113 3 -216q0 -3 -1 -5q-2 -4 -7 -4h-84q-6 0 -8 4q-1 2 -1 5z" />
    <glyph glyph-name="J" unicode="J" horiz-adv-x="311" 
d="M163 700h55q7 0 10 -3.5t5 -7.5q2 -5 2 -11q-2 -100 -1.5 -197.5t1.5 -176.5l2 -177q0 -58 -9 -101.5t-23.5 -75t-33 -52t-37.5 -33.5q-46 -30 -103 -30q-9 0 -15 2.5t-10 5.5q-4 4 -8 9q-10 17 -8 26.5t9 14.5q7 6 20 9q6 1 12 0q5 -1 12 -3.5t13 -10.5q5 -6 10 -9
q5 -2 12 -1t15 11q15 14 26 37q10 20 18.5 51.5t8.5 78.5v433q0 101 1 190q0 6 2 10t4.5 7.5t9.5 3.5z" />
    <glyph glyph-name="K" unicode="K" horiz-adv-x="650" 
d="M172 9q0 -3 -1 -5q-2 -4 -8 -4h-82q-5 0 -7 4q-1 2 -1 5l2 226q0 49 0.5 104t0.5 111.5t-0.5 113.5t-1.5 111q-1 7 0 12t4 8.5t9 3.5h67q8 0 11 -3.5t5 -7.5q2 -5 1 -11q-2 -44 -3 -92q-1 -42 -1.5 -93t-0.5 -102q0 -10 3 -11q1 -1 3 1l107 98l103.5 98.5l110.5 109.5
q2 2 6 5q3 2 8 3.5t12 1.5h19q16 0 21.5 -3t5.5 -6q0 -4 -6 -9q-60 -52 -111.5 -101.5l-91.5 -88.5l-86 -87q-6 -5 -7 -14q-1 -8 3 -19.5t18 -28.5q37 -44 83 -94l92 -100.5l116 -121.5l4.5 -4.5t5.5 -7.5t0.5 -7.5t-10.5 -3.5h-95q-9 0 -18 11q-4 5 -9 12l-100.5 120
l-87.5 101l-86 96q-4 3 -7 5q-6 4 -6 -7q0 -58 0.5 -116t2.5 -106q1 -55 3 -107z" />
    <glyph glyph-name="L" unicode="L" horiz-adv-x="550" 
d="M86 1q-14 0 -19 11q-3 4 -3 12q2 128 3 246.5t0 211.5q-1 108 -2 204q-1 3 1 7l4.5 4.5t8.5 2.5h69q6 0 8.5 -2t4.5 -4q1 -3 1 -5q-1 -85 -2 -184q-1 -85 -0.5 -198.5t2.5 -241.5q0 -4 1 -7q2 -6 10 -6h94q42 0 95.5 0.5t110.5 2.5q4 0 8 -2q8 -4 8 -15v-22q0 -4 -2 -8
q-2 -3 -6.5 -6t-12.5 -2q-72 2 -140.5 2h-122.5q-63 0 -119 -1z" />
    <glyph glyph-name="M" unicode="M" horiz-adv-x="877" 
d="M814 1h-84q-8 0 -10 4q-1 2 -1 4q-2 105 -4.5 205.5t-5.5 179.5q-4 92 -7 176q-22 -42 -57 -116l-79 -167l-119 -259q-4 -11 -9 -20q-5 -8 -10.5 -14t-10.5 -6q-7 0 -11.5 4.5t-8.5 9.5q-4 6 -8 15l-102.5 227l-75.5 162l-63 130q-6 -61 -12 -140l-12.5 -165t-15.5 -221
q-1 -3 -2 -5q-2 -4 -6 -4h-47q-5 0 -5 5q-1 2 0 5l20 296.5l13 206.5l10 162q0 6 2 11q2 4 5.5 7.5t10.5 3.5h66q5 0 8 -2.5t5 -4.5q3 -4 4 -7q64 -180 117.5 -298.5t87.5 -185.5l21 -42t15 -33l20 41l34.5 76l46 103.5l62.5 144l84 197.5q0 3 3 6q2 2 5.5 4.5t9.5 2.5h59
q5 0 9 -3t6 -7q3 -4 3 -10l4.5 -81.5t6.5 -93.5q5 -87 14 -209.5l20 -284.5q1 -3 0 -5q-2 -5 -6 -5z" />
    <glyph glyph-name="N" unicode="N" horiz-adv-x="703" 
d="M620 682q-2 -79 -2.5 -159t-0.5 -154v-138.5t1 -111.5q1 -55 2 -102q-1 -10 -9 -14q-4 -2 -8 -2h-32h-3q-3 0 -5 2l-9 13l-141 172.5l-124 149.5l-103 120.5l-77 87.5q-1 -43 -1 -86v-83q0 -76 0.5 -141.5t1.5 -114.5q1 -57 2 -104q0 -14 -8 -15t-9 -1h-44q-4 0 -8 3
q-7 5 -7 21q1 34 3 81q1 39 2 96t1 129q0 146 -6 343q0 16 7 21q4 3 8 4h39q2 0 6 -2q2 -2 5.5 -5t7.5 -9v1l265 -317.5l175 -199.5q0 36 0.5 79t0.5 96q0 70 -1 152.5t-4 179.5q0 16 7 21q3 3 7 4l45 -1h3.5t5.5 -1.5t5 -4.5t2 -10z" />
    <glyph glyph-name="O" unicode="O" horiz-adv-x="789" 
d="M359 714q10 1 19 1.5t19 0.5q70 0 132.5 -23t111.5 -66t80 -104.5t39 -137.5l2 -16.5t1 -17.5q0 -71 -25.5 -134t-70.5 -111.5t-106.5 -79.5t-133.5 -38q-11 -1 -20.5 -1.5t-20.5 -0.5q-69 0 -131 22.5t-110.5 65.5t-80 104t-39.5 138q-1 9 -1.5 18t-0.5 18
q0 69 25.5 131.5t70.5 111.5t106 80t133 39h1zM426 36q60 3 103.5 26.5t71.5 62.5t41 90t13 108q0 25 -3 52q-7 66 -32.5 121.5t-64 95t-88 59t-103.5 13.5q-51 -5 -93 -29t-73 -63t-48 -90.5t-17 -109.5q0 -9 0.5 -18t1.5 -18v1q7 -65 26.5 -122t54.5 -98.5t86.5 -63.5
t123.5 -17z" />
    <glyph glyph-name="P" unicode="P" horiz-adv-x="511" 
d="M237 709q46 0 81.5 -8t61.5 -21t44 -29.5t29 -33.5q26 -40 30 -91q0 -64 -26 -113q-11 -21 -29.5 -41t-46 -36t-66 -25.5t-89.5 -9.5h-62q-3 0 -5 -2q-5 -3 -5 -13l10 -276q0 -3 -1 -5q-2 -4 -8 -4h-83q-8 0 -10 4q-1 2 0 5q3 135 3.5 256t-0.5 214q-1 108 -4 202
q0 8 7 12q3 2 7 3q19 3 44 6q21 2 50.5 4t67.5 2zM392 520q0 48 -18 78t-45 47t-57 23.5t-54 6.5q-11 0 -19 -0.5t-14 -1.5q-7 -1 -12 -1q-8 -2 -15 -8.5t-7 -18.5v-290q0 -11 3 -12q2 -1 4 -1h78q6 0 20 1.5t31 7.5t35.5 17t34 31t25.5 49.5t10 71.5z" />
    <glyph glyph-name="Q" unicode="Q" horiz-adv-x="820" 
d="M642 82q11 -13 28 -24q14 -9 36 -17.5t53 -10.5q10 0 21 2q10 2 22 5.5t26 10.5q4 2 11 2.5t5 -7.5t-9.5 -14.5t-14.5 -10.5q-22 -11 -45.5 -17t-48.5 -5q-21 1 -32 6l-30 13q-11 5 -18 9l-13 7.5t-13 8l-17 10.5q-77 -54 -175 -63q-11 -1 -21 -1.5t-21 -0.5q-44 0 -84 9
q-11 2 -21 3.5t-19 6.5l-4 3q-47 16 -86.5 44.5t-70.5 67.5t-50.5 88.5t-25.5 107.5q-1 10 -1.5 19t-0.5 18q0 69 25.5 131.5t70.5 111t106 80t133 39.5h1q10 1 19 1.5t19 0.5q70 0 133 -23t112 -66.5t80 -105t39 -137.5q1 -8 1.5 -16.5t0.5 -16.5q0 -81 -32 -149.5
t-89 -119.5zM284 87q-5 -3 -8 -7q-2 -3 -3.5 -6.5t1.5 -5.5q31 -20 67.5 -28t85.5 -5q39 2 70.5 12.5t57.5 28.5l-18 9q-36 18 -75 28t-81 8q-25 -2 -43 -7.5t-30 -11.5q-14 -7 -24 -15zM569 128l9.5 -5.5t8.5 -4.5q4 -3 7 -4q35 40 48.5 93t13.5 116q0 24 -3 51
q-6 62 -29.5 115.5t-59 92.5t-80.5 61t-96 22h-12t-12 -1q-51 -5 -93 -29t-73 -63.5t-48 -91t-17 -109.5q2 -52 13 -102q10 -43 30.5 -91t60.5 -85q5 11 12 18.5t14 12.5q18 12 41 21q20 8 46.5 14t58.5 5q42 -2 82 -10.5t78 -25.5z" />
    <glyph glyph-name="R" unicode="R" horiz-adv-x="571" 
d="M141 303q-2 -15 -3 -52q-1 -32 -0.5 -89.5t3.5 -153.5q0 -3 -1 -5q-2 -4 -6 -4h-77q-7 0 -9 4q-1 2 0 5q2 139 2.5 260.5t-0.5 213.5q-1 107 -2 198q0 8 7 12q3 2 7 3q54 8 96 10t68 2q68 -2 122 -21q23 -8 45 -21.5t39.5 -33t28 -46.5t10.5 -63q0 -26 -7 -48t-19 -40
t-27 -32.5t-30 -25.5q-37 -26 -83 -42q-5 -2 -6.5 -4t-2.5 -4t0 -3l91 -162q1 -3 15.5 -25t36 -47.5t48 -46t50.5 -20.5q8 0 10 1q12 3 18 3q9 0 11 -3t2 -7q-3 -14 -15 -20.5t-26.5 -9t-26.5 -2t-15 0.5q-45 0 -84.5 29t-72 71.5t-59 91t-46.5 88.5q-6 14 -16 25
q-8 9 -20 17t-26 8l-21 1q-6 0 -8 -7q-1 -3 -1 -6zM176 669q-11 0 -24.5 -6.5t-13.5 -23.5v-271q0 -12 7 -12h77q24 1 51.5 9.5t51 27.5t39 50.5t15.5 79.5q0 32 -9 55t-23 39.5t-32.5 26.5t-37.5 16q-45 13 -101 9z" />
    <glyph glyph-name="S" unicode="S" horiz-adv-x="489" 
d="M69 522q-1 31 5.5 56t18.5 44t27 32.5t31 22.5q37 22 86 28q9 1 20 1.5t19 0.5q51 0 80.5 -11.5t41.5 -19.5q1 0 5.5 -2.5t9.5 -6.5t9.5 -8.5t4.5 -8.5q2 -14 2 -24.5v-16.5v-12q-5 -10 -12 -14.5t-14 -0.5q-4 2 -8 5.5t-8 8.5q-11 29 -31.5 46t-40.5 26q-24 11 -51 14
q-42 -6 -65 -23t-34 -34q-13 -20 -14 -44q-2 -11 -1 -29t3 -29q5 -19 19.5 -40.5t47.5 -39.5l61 -35.5l61 -34.5q10 -7 29.5 -19t37.5 -34t30.5 -55.5t9.5 -82.5q0 -52 -26 -95q-11 -18 -29 -36t-45 -32.5t-64 -23.5t-86 -9q-26 0 -45.5 4.5t-34 10.5t-25 13t-19.5 12
q-2 2 -6 4.5l-7 4.5l-8 6q-11 11 -10 20q1 22 0 47l-2 26q4 10 10 11.5t11 -4.5l13 -19q17 -30 41 -52q20 -19 50 -33.5t71 -11.5q48 7 72 31.5t35 52.5q6 16 9 39.5t3 43.5q0 28 -11 46t-26 32q-9 8 -19.5 16t-21.5 15l-115 73q-35 23 -54.5 49.5t-28.5 48.5q-11 26 -12 50
z" />
    <glyph glyph-name="T" unicode="T" horiz-adv-x="652" 
d="M357 0h-61q-11 0 -15 9q-2 4 -2 10q2 127 2 238v196q0 99 -1 183q0 5 -1.5 7.5t-3.5 4.5q-3 1 -5 1q-44 0 -87 -0.5t-77 -0.5h-76q-3 0 -6 2q-6 4 -6 15v18q0 11 5 14q3 2 6 2h185q83 0 187 -0.5t213 0.5q4 -1 8 -3q8 -4 8 -12v-17q0 -8 -2.5 -11.5t-4.5 -5.5
q-4 -2 -7 -2h-71q-32 0 -74 0.5t-89 0.5l-6 -2q-5 -3 -5 -10q-1 -79 -1 -177q0 -84 -0.5 -196.5t1.5 -246.5q1 -5 -1 -9q-4 -8 -13 -8z" />
    <glyph glyph-name="U" unicode="U" horiz-adv-x="641" 
d="M577 241q-3 -71 -30 -126q-12 -24 -30.5 -46.5t-45.5 -40t-64 -28t-86 -10.5q-51 0 -89.5 12t-67 32.5t-47.5 46t-31 52.5q-28 62 -30 143v207.5t-1 125.5q-1 53 -2 78q0 3 2 6q2 2 4 4.5t7 2.5h71q7 0 10 -2.5t5 -4.5q2 -4 1 -7q-2 -57 -4 -123q-2 -57 -2 -130.5
t2 -154.5q1 -43 8.5 -75t19.5 -56t28 -40t33 -26q41 -25 92 -26q36 0 63 8t46.5 21.5t33 30.5t21.5 35q19 42 20 96q2 82 3 160t0 139q-1 71 -3 134q-1 6 0 10t4 7.5t9 3.5h36q11 0 13 -8q1 -4 1 -7q-1 -27 -2 -83q-1 -49 -0.5 -135t2.5 -226z" />
    <glyph glyph-name="V" unicode="V" horiz-adv-x="706" 
d="M631 689q1 3 3 6l4.5 4.5t5.5 2.5h32q7 0 8.5 -3t1.5 -6q-1 -4 -3 -9l-98 -201l-100.5 -208.5l-114.5 -244.5q-5 -10 -9 -17t-8 -12t-9 -5q-12 0 -19 11q-4 5 -6 12l-123.5 280.5l-92.5 208.5l-80 175q-5 13 2 15.5t9 2.5h76q5 0 8.5 -2.5t5.5 -4.5l4 -7l74 -172
l76 -175.5l89 -200.5l105 214l83 175z" />
    <glyph glyph-name="W" unicode="W" horiz-adv-x="1061" 
d="M1020 703q6 0 8 -3t2 -6q0 -4 -3 -9h1l-53.5 -115.5l-54 -115l-51.5 -109.5l-47 -100l-101 -212q-6 -14 -11 -20.5t-9 -9.5q-4 -4 -9 -4q-2 0 -8 3t-14 20l-30 61l-38.5 78l-54.5 113l-49.5 -99l-39.5 -78l-35 -69h1q-6 -14 -11 -21t-10 -10q-5 -4 -9 -3q-2 0 -8 3
t-13 19l-79 160l-106 206.5l-156 296.5q-3 7 -2.5 10.5t3 5t5.5 2t4 0.5h76q8 0 14 -8q3 -4 4 -7q3 -7 16 -34l33 -68.5l46 -94l55.5 -110l61.5 -117.5l64 -115l26 54l31.5 64.5l43.5 87.5l-70 154l-81 182h1q-4 8 -2.5 11t4.5 5q4 2 9 1h74q5 0 8.5 -2.5t5.5 -4.5
q3 -4 4 -7l50 -131t46 -108l2 5l53.5 109.5l57.5 121.5q4 9 12 11q4 1 6 1q11 0 21.5 0.5t20.5 0.5q6 0 8 -3t2 -6q0 -4 -3 -9h1l-72.5 -155l-74.5 -151l74 -142q6 -11 15 -30l25 -54l69 152l79 171l102 219q5 9 12 11q4 1 6 1q11 0 21 0.5t21 0.5z" />
    <glyph glyph-name="X" unicode="X" horiz-adv-x="659" 
d="M609 19q1 -1 4 -4.5t3.5 -7t-2.5 -6t-13 -2.5l-30 1h-71q-1 -1 -4 1q-2 2 -5 4.5t-6 9.5v-1l-81.5 134.5l-82.5 131.5l-89.5 -132l-89.5 -134l1 1q-3 -7 -6.5 -9.5t-5.5 -4.5q-3 -2 -5 -1h-51q-11 0 -7 11q2 4 6 11q8 9 27 35.5l47.5 66.5l64 91.5l76.5 111.5l-90 136.5
l-74 110.5l-69 100q-2 4 -2 8t2 8t10 9h82q1 0 6 -1.5t12 -12.5l70 -110l70 -109l17 -26.5t18 -26.5l88 132l93 140q7 11 11.5 12.5t6.5 1.5h40q9 -3 11 -9q1 -4 0 -7l-64 -92l-69.5 -101l-85.5 -125l84.5 -127.5l71 -105.5l53 -75.5t28.5 -37.5z" />
    <glyph glyph-name="Y" unicode="Y" horiz-adv-x="637" 
d="M326 351q1 -2 2 -2l1 1l70.5 113l64.5 110l67 116q5 8 9.5 9t6.5 1h52q10 -3 12 -9q1 -4 0 -7l-66 -100l-74.5 -115l-93.5 -150q-4 -4 -7 -24q-2 -17 -4 -52.5t-2 -100.5q0 -26 0.5 -55.5t1.5 -64.5q0 -8 -3 -12.5t-7 -6.5q-4 -3 -9 -3h-59q-9 0 -13 10q-2 4 -3 10
q2 38 3 73t1 61q0 48 -2 76.5t-4 43.5q-3 18 -6 24l-91.5 149.5l-76.5 119.5l-73 108q-2 4 -2 8t2 8t10 9h83q1 0 5 -0.5t9 -8.5l55 -105.5l48 -88t46 -76z" />
    <glyph glyph-name="Z" unicode="Z" horiz-adv-x="668" 
d="M49 60l138 176l139.5 184l158.5 217v1q-2 2 -6 2q-84 0 -154 -0.5t-123 -1.5q-62 -1 -112 -2q-10 0 -12 8q-2 4 -1 9v30q0 10 10 14q4 2 10 2q68 -1 145 -1q66 0 150 -0.5t175 1.5q6 0 10 -2t7.5 -5t3.5 -8l-1 -32q0 -4 -1.5 -7.5t-3.5 -7.5q-3 -4 -5 -9l-155.5 -216.5
l-125.5 -178.5l-115 -166q-1 -1 -1 -2q0 -2 8 -2h126h134t162 2q2 0 4 -2q5 -5 5 -13l2 -33q0 -5 -2 -9q-4 -9 -12 -9h-382h-169q-10 0 -14 8q-2 4 -1 9v26q0 6 4 12z" />
    <glyph glyph-name="o" unicode="o" horiz-adv-x="612" 
d="M296 485q52 2 98 -14.5t81.5 -47.5t57 -74.5t23.5 -94.5q3 -60 -14.5 -108t-50.5 -82t-78 -53t-97 -21t-98 12.5t-81.5 45.5t-57 77.5t-24.5 108.5q-2 51 16 95.5t50.5 78.5t77.5 54.5t97 22.5zM317 28q38 1 66.5 20t47 50t27 68.5t6.5 83.5q-2 40 -13.5 78t-32.5 65
t-51 41t-68 13q-77 -4 -117 -60t-36 -142q2 -46 14.5 -84t34.5 -69t53 -48.5t69 -15.5z" />
    <glyph glyph-name="p" unicode="p" horiz-adv-x="583" 
d="M93 468h65q8 0 10 -6q1 -3 1 -5l-1 -24q0 -2 2 -4t4 -2t7 4q7 6 22.5 15.5t37.5 18t50 14.5t61 6q20 0 35.5 -3.5t27.5 -8.5q13 -5 25 -12q16 -11 32 -28t28.5 -42t20 -60.5t7.5 -83.5q0 -41 -9.5 -73.5t-25.5 -58.5t-36 -45.5t-41 -33.5q-49 -33 -111 -49
q-29 -5 -62.5 -4.5t-62.5 16.5q-7 3 -9.5 -0.5t-4.5 -8.5q-2 -6 -1 -15q0 -22 1 -55q1 -28 1.5 -68.5t2.5 -94.5v-3q0 -3 -3 -3h-81q-4 0 -4 2v3q1 149 1.5 276t0.5 222q0 111 -1 202q-1 3 0 6q2 6 10 6zM165 167q0 -36 7 -60.5t18 -40.5t25.5 -25t29.5 -13q27 -8 49 -7.5
t40.5 7t33.5 18t26 25.5q26 31 41 77q5 21 8 44t2 49q0 40 -7 70t-18.5 51.5t-26 35.5t-29.5 23q-35 20 -80 18q-33 -3 -59 -15q-23 -11 -41 -33t-18 -63z" />
    <glyph glyph-name="h" unicode="h" horiz-adv-x="567" 
d="M222 426q-23 -11 -41.5 -34t-18.5 -67v-92q0 -43 0.5 -102t2.5 -128q-1 -1 -1 -2q-1 -1 -2 -1h-82q-3 0 -4 1t-1 2q2 138 3 269.5t1 235.5q0 121 -2 230q0 3 1 6q2 6 8 6h67q8 0 10 -6q1 -3 1 -5q-1 -35 -1 -82q0 -40 -0.5 -96.5t1.5 -128.5q0 -10 6 -6q3 1 7 5
q7 6 23 15.5t38.5 18.5t51.5 15t62 6q36 -1 64 -18q12 -7 23.5 -18.5t21 -28t15 -39.5t5.5 -53q0 -55 1 -111q1 -48 1.5 -105t2.5 -110q0 -1 -1 -2t-4 -1h-77q-4 0 -4 1q-1 1 0 2q1 63 1.5 120.5t-0.5 101.5q-1 51 -2 96q-1 17 -4 32.5t-8 29.5q-14 38 -41 50t-55 10
q-33 -2 -69 -17z" />
    <glyph glyph-name="d" unicode="d" 
d="M483 1h-69q-8 0 -10 4q-1 2 -1 4q0 4 0.5 7.5t0.5 6.5v7q0 7 -7 5q-3 -1 -6 -4q-15 -13 -61 -27.5t-112 -14.5q-34 0 -60 10t-45 27t-32 38t-21 44q-19 52 -22 119q0 74 22.5 121t50.5 74q33 32 74 48q32 12 66 16q29 4 66 0.5t75 -23.5q3 -4 7 -3q3 1 5.5 6.5t2.5 20.5
q0 51 -1 100t-2 87q-1 45 -2 85v3q0 4 3 4h82q3 0 5 -4v-3q-2 -135 -2.5 -267.5t0.5 -239.5l2 -239q0 -3 -1 -6q-2 -6 -8 -6zM406 136v26t0.5 32t0.5 46v67q0 36 -7 60.5t-18.5 41t-26.5 26t-30 13.5q-36 10 -81 -2q-35 -12 -61 -38q-23 -23 -41.5 -65t-18.5 -111
q2 -57 17 -101q6 -19 16 -37t24.5 -32t34.5 -22.5t47 -8.5q54 0 83 16t43 36q16 23 18 53z" />
    <glyph glyph-name="A" unicode="A" horiz-adv-x="675" 
d="M636 17q3 -8 1.5 -11t-4.5 -5q-4 -2 -8 -1q-14 1 -27 1h-24q-12 0 -23 -1q-9 0 -14 7q-3 3 -4 7l-44 125.5t-40 105.5q0 1 -2 3l-4 2t-5 1q-44 2 -85 2.5t-74.5 0t-57.5 -1.5t-34 -2q-6 -1 -8 -3q-1 -1 -2 -3q-5 -9 -15 -31.5l-23 -53l-28 -68.5t-29 -78q-1 -4 -3 -7
q-4 -6 -9 -6q-5 1 -10 1h-11t-14 -1q-7 -1 -8.5 1.5t-1.5 6.5t2 10l113.5 254l89.5 206l80 189q5 13 10.5 19.5t9.5 9.5q5 3 10 2t10 -5t10 -15l80 -198l88 -210zM414 305q8 0 10 5q0 3 -1 6q-15 48 -32 96.5l-31 86.5l-34 86q-22 -44 -43 -91l-39 -88l-39 -93q-2 -3 -2 -5
q0 -5 5 -4q27 -1 60 -1h65t81 2z" />
    <glyph glyph-name="B" unicode="B" horiz-adv-x="551" 
d="M465 537q0 -36 -15.5 -62t-36.5 -43.5t-41 -26.5t-29 -12q47 -10 84 -36q16 -11 31 -26.5t27 -36.5t19.5 -48.5t7.5 -61.5q-2 -52 -36 -92q-15 -17 -38 -33.5t-58 -29.5t-82.5 -21t-110.5 -8l-134 1q-6 0 -8 4q-1 2 -1 5q2 127 2 247v216q0 112 -1 212q0 8 7 12q4 2 7 2
l37 3q58 6 106 6q69 0 115.5 -13t75.5 -32t44 -41.5t21 -41.5t6.5 -31.5t0.5 -11.5zM374 518q1 44 -16 78q-7 15 -19 29t-30 25t-43 18t-58 7q-28 0 -43.5 -1.5t-23.5 -3.5q-10 -3 -12 -5q-2 -27 -3 -63q-1 -31 -0.5 -75.5t3.5 -101.5q0 -10 4 -15q3 -6 11 -10.5t24 -4.5
q40 0 70 5t52 13.5t37 19.5t24 23q22 27 23 62zM133 348q-8 -30 -11 -71q-2 -35 0 -87t16 -120q2 -12 7 -21q5 -8 13.5 -14t23.5 -6q45 0 79.5 7t59 19t41 27t27.5 31q25 37 25 84q1 47 -20 84q-9 16 -24 31t-38 27t-55 19.5t-74 7.5q-25 0 -39 -3t-21 -6q-8 -4 -10 -9z" />
    <glyph glyph-name="C" unicode="C" horiz-adv-x="685" 
d="M390 716q25 0 60 -6.5t70 -19t66 -32t49 -46.5q3 -6 5 -16.5t-1 -22t-13.5 -20.5t-31.5 -12q-15 -1 -20 4q-3 2 -4 5q-12 38 -34 63t-47.5 40t-51.5 21t-45 6q-52 1 -97.5 -23t-80 -67t-55 -100.5t-22.5 -123.5t13 -125t45 -103.5t76 -71.5t106 -30q19 -1 42.5 2t50 12
t55.5 26t58 46l6 6q6 6 9 5l37 -32q1 -1 2 -3q2 -3 -4 -9q-48 -30 -81.5 -47t-61.5 -26t-55 -11.5t-62 -2.5q-89 0 -152.5 30.5t-104 81.5t-59 117t-16.5 137q2 74 30.5 138.5t75.5 112t109.5 73.5t133.5 24z" />
    <glyph glyph-name="D" unicode="D" horiz-adv-x="688" 
d="M66 694l69 6q30 2 65 4t66 3q109 0 194 -36q36 -15 71 -40t62.5 -62t44 -88t16.5 -119q0 -72 -17.5 -125.5t-45.5 -92t-64.5 -64.5t-73.5 -42q-89 -38 -201 -38h-180q-12 0 -18 4.5t-9 9.5q-4 6 -4 14q2 124 2.5 237.5t-1.5 202.5q-2 103 -4 194q0 11 4.5 17.5t9.5 9.5
q6 4 14 5zM159 41q20 -4 57 -7.5t81.5 1t90.5 21.5t83.5 53.5t61.5 96.5t24 151q0 60 -13 106t-34.5 79.5t-48.5 56.5t-55 38q-66 34 -150 38q-20 0 -38.5 -1.5t-32.5 -3.5q-17 -3 -30 -5q-8 -2 -15.5 -8t-8.5 -16q-2 -75 -2 -167q0 -78 2.5 -184.5t9.5 -231.5q0 -8 9 -13
q4 -3 9 -4z" />
    <glyph glyph-name="m" unicode="m" horiz-adv-x="902" 
d="M85 474h66q8 0 11 -5q1 -3 1 -5l-1 -27q0 -11 6 -7q3 1 7 5q8 6 24 15.5t38.5 18t51 15t62.5 6.5q19 -1 38 -7q17 -5 37 -17t39 -35q2 -2 5 -3q2 -1 5.5 -1t8.5 4q8 7 26 18t42.5 21t55 16.5t63.5 5.5q36 -2 65 -20q25 -15 45.5 -47.5t20.5 -90.5q0 -42 1 -93
q1 -44 1 -103t2 -130v-3q0 -2 -4 -2h-78q-3 0 -3 3v3q1 75 0.5 133.5t-0.5 99.5q-1 48 -1 83q0 36 -12 63q-10 23 -34.5 41.5t-71.5 14.5q-37 -2 -61 -13q-23 -11 -41.5 -34t-18.5 -68q0 -38 1 -86q1 -42 1.5 -101t2.5 -134v-4q-2 -3 -5 -3h-78q-4 0 -4 3v4v234q0 48 -1 83
q0 50 -18.5 74.5t-40.5 34.5q-26 11 -58 9q-36 -3 -63 -16q-24 -11 -43.5 -34t-19.5 -65q0 -37 1 -85q1 -42 1.5 -101.5t2.5 -134.5v-3q0 -3 -4 -3h-80q-3 0 -3 3v4q1 91 1.5 173t0.5 145v136q0 3 1 6q2 6 9 6z" />
    <glyph glyph-name="n" unicode="n" horiz-adv-x="590" 
d="M516 330q0 -40 1 -90q1 -43 1.5 -103t2.5 -133q-1 -1 -1 -2q-2 -2 -3 -2h-78q-4 0 -4 2q-1 1 0 3v121t-1 101q-1 51 -2 95q-2 33 -14 59q-11 22 -34 40.5t-66 18.5q-44 -2 -78 -14q-15 -5 -29 -13.5t-25 -20.5t-17.5 -28t-6.5 -38q0 -40 1 -89q1 -42 1.5 -101t2.5 -129
v-4q0 -3 -4 -3h-77q-5 0 -5 3q-1 1 0 3q1 94 1.5 175.5t0.5 143.5v133q0 3 1 6q2 6 8 6h68q5 0 9 -6q1 -3 2 -5v-25q0 -8 6 -6q3 1 6 4q7 6 27.5 16.5t48.5 20.5t61.5 16t66.5 2q36 -4 64 -22q24 -16 44.5 -47.5t20.5 -87.5z" />
    <glyph glyph-name="u" unicode="u" horiz-adv-x="555" 
d="M269 38q47 0 71 17.5t35 38.5q12 25 13 57q0 40 0.5 68t0.5 50t-0.5 40.5t-1 40.5t-1 49.5t-1.5 66.5v2q0 3 4 3h79q1 0 4 -3q1 -1 1 -2q-1 -60 -1 -131v-143.5t1 -178.5q0 -3 -1 -6q-2 -6 -8 -6h-68q-8 0 -10 5q-1 3 -1 6v13v20q0 7 -6 5q-3 -1 -6 -3q-8 -6 -23.5 -15.5
t-37.5 -18t-50 -15t-61 -6.5q-26 0 -44.5 6.5t-32 17.5t-22.5 24.5t-15 28.5q-13 34 -13 78q0 60 -0.5 116.5t-1.5 101.5q-1 53 -2 100q-1 1 0 3q0 3 4 3h75q4 0 4 -3v-3v-94q0 -43 0.5 -99t1.5 -118q1 -32 12 -58q10 -22 33 -40t69 -18z" />
    <glyph glyph-name="l" unicode="l" horiz-adv-x="257" 
d="M166 0h-82q-4 0 -4 3v4q2 163 2 299.5v236.5q0 117 -1 212q0 2 1 5q2 5 8 5h68q6 0 9 -5q1 -2 1 -4q-1 -102 -1 -222q0 -103 0.5 -238.5t2.5 -288.5q-1 -2 -1 -4q-2 -3 -3 -3z" />
    <glyph glyph-name="b" unicode="b" 
d="M355 487q49 -8 88 -35q16 -12 32 -29t29 -41t20.5 -55.5t7.5 -72.5q-1 -72 -24 -128q-10 -24 -25.5 -47t-39 -41t-55.5 -29t-74 -11q-40 0 -69 4t-48 9q-23 6 -38 14q-15 5 -26 6q-10 0 -18 -4.5t-8 -19.5q0 -1 -1 -2t-7 -1h-12q-4 0 -4 6v6q2 141 2.5 273t0.5 236
q-1 121 -2 229q-1 2 0 5q2 6 10 6h66q8 0 10 -6q1 -3 1 -5q-1 -41 -1 -90q-1 -42 -1 -98t1 -119q0 -6 2 -7t4 0q3 1 6 5q33 23 64 33t55 12q28 3 54 -3zM168 341l-1 -169q0 -33 6.5 -56.5t18 -39t26.5 -25t30 -14.5q36 -11 81 -3q33 9 59 35q11 11 22 26.5t19.5 37
t13.5 49.5t5 64q0 38 -6 66.5t-16 49.5t-22 35.5t-25 23.5q-31 21 -69 24q-40 2 -72 -8q-14 -4 -26.5 -11.5t-22.5 -18.5t-16 -27.5t-5 -38.5z" />
    <glyph glyph-name="i" unicode="i" horiz-adv-x="293" 
d="M195 620q0 -23 -16 -39t-39 -16t-39 16t-16 39t16 39t39 16t39 -16t16 -39zM186 10q-2 90 -2.5 170.5t0.5 142.5q1 72 2 135q1 3 0 6q-2 6 -9 6h-72q-8 0 -10 -5q-1 -3 0 -5q1 -61 2 -132q1 -61 0.5 -142.5t-3.5 -175.5q0 -3 1 -5q2 -5 7 -5h74q7 0 9 5q1 2 1 5z" />
    <glyph glyph-name="q" unicode="q" horiz-adv-x="571" 
d="M420 453q15 -6 26 -7q10 -1 18.5 4t8.5 22v1h1q1 1 2 1h17q1 0 3 -2q0 -1 1 -2q-1 -94 -2 -207q-1 -97 -1 -224.5t2 -273.5q0 -3 -1 -6q-2 -5 -9 -5h-66q-8 0 -10 5q-1 3 -1 6q4 134 3 196q-1 37 -2 62q0 7 -7 5q-3 -1 -6 -4q-57 -33 -105 -38.5t-83 1.5q-40 8 -73 29
q-17 11 -33 28t-28.5 42.5t-20 60t-7.5 80.5q0 47 9.5 83t24.5 62.5t34.5 45t40.5 30.5q48 28 110 32q32 2 60.5 -2t49.5 -9q25 -7 44 -16zM417 306q0 35 -7.5 60t-20 41.5t-27.5 26t-30 13.5q-35 11 -80 -3q-34 -14 -60 -41q-23 -23 -41.5 -65t-18.5 -107q0 -56 15 -100
q6 -19 16 -37t25 -32t35 -22.5t47 -8.5q56 0 85 16t43 36q16 23 18 53z" />
    <glyph glyph-name="e" unicode="e" horiz-adv-x="531" 
d="M137 261q-1 -75 27 -124q12 -21 30.5 -40t45.5 -32.5t63.5 -18.5t84.5 3q7 1 13 3l12 4q11 5 25.5 17t25.5 29q5 7 13.5 3.5t4.5 -12.5q-16 -45 -45.5 -67t-58.5 -32q-36 -11 -73 -11q-62 -2 -110 19q-21 9 -42.5 23.5t-39.5 37.5t-31.5 55t-19.5 76q-5 74 17 132
q9 25 25 50.5t41 47.5t60.5 38t83.5 21q51 3 92 -14q17 -8 33.5 -21t29.5 -33.5t21 -49.5t8 -69q0 -10 -10 -10h-303q-10 0 -14.5 -4t-6.5 -9q-3 -5 -2 -12zM159 326h145h25.5t21.5 1q17 2 32.5 6t14.5 22q0 35 -17.5 54t-37.5 27q-25 10 -55 9q-26 -2 -51 -12
q-21 -10 -43.5 -32.5t-39.5 -65.5q-1 -3 -1 -5q0 -4 6 -4z" />
    <glyph glyph-name="c" unicode="c" horiz-adv-x="513" 
d="M455 380q-9 -26 -19.5 -33t-19.5 -4q-11 3 -20 16q-11 32 -29 49t-35 25q-20 9 -43 10q-29 0 -51 -9t-38 -24t-26.5 -34t-17.5 -38q-16 -47 -17 -105q1 -59 24 -102q10 -18 25.5 -35t38.5 -28t55 -15t74 3q17 2 31 8q12 5 23.5 15.5t16.5 28.5q1 3 6.5 4t11.5 -0.5
t10.5 -4.5t3.5 -7q-14 -42 -42.5 -64.5t-57.5 -32.5q-33 -11 -72 -12q-55 -4 -101 16q-20 8 -39.5 22.5t-36 37t-28.5 54.5t-17 76q-4 62 10 116q6 23 16 46.5t26.5 44.5t40 38t55.5 27q38 7 75 9q32 1 66 -4t60 -25l24 -23q8 -10 14.5 -22.5t2.5 -23.5z" />
    <glyph glyph-name="r" unicode="r" horiz-adv-x="388" 
d="M181 424l29.5 24.5t58.5 26.5q15 3 29 2q12 -1 25 -5.5t22 -16.5q4 -6 6.5 -15t0.5 -23q-4 -10 -8 -17q-5 -7 -11 -12t-17 -5q-10 0 -17.5 4t-12.5 9q-6 5 -12 13q-12 14 -26.5 13.5t-27.5 -5.5q-15 -6 -30 -19q-9 -10 -16.5 -27.5t-7.5 -45.5q-1 -37 0 -85q0 -42 1 -101
t3 -134v-3q0 -2 -3 -2h-83q-2 0 -4 2q-1 1 -1 3q1 94 1.5 176t0.5 144q0 72 -1 132q0 3 1 6q2 6 9 6h68q8 0 10 -6q1 -3 1 -5l-1 -32q0 -8 6 -6q3 1 7 4z" />
    <glyph glyph-name="a" unicode="a" horiz-adv-x="503" 
d="M62 45q-12 27 -13.5 50t3.5 41.5t15.5 33.5t23.5 26q30 26 76 41l132 34q3 2 7 6q8 8 8 24v79q1 17 -7 31q-7 11 -22.5 21t-46.5 10q-21 -1 -38 -6q-14 -5 -25.5 -14t-11.5 -26q0 -8 -1 -16q-2 -15 -5 -25q-5 -9 -11 -17q-5 -7 -12 -13t-14 -8q-12 -4 -22 0q-4 2 -8 5
q-3 2 -4.5 5.5t-2.5 6.5l-2 8q-2 8 1 18t7 19q4 10 11 20q14 25 37 44q20 17 49.5 31t74.5 14q35 -2 63 -14q12 -5 23 -13t20 -19.5t14.5 -26.5t5.5 -34v-285q-1 -15 3 -26q3 -10 12 -19.5t27 -12.5q8 -2 17 -1q8 1 16.5 3.5t16.5 10.5q3 0 6 -1l4.5 -4.5t2.5 -10.5
q-29 -26 -57 -37q-12 -5 -25.5 -7t-27 1t-26.5 13t-25 28q-5 6 -10 10q-5 3 -10.5 3t-13.5 -8q-10 -10 -29 -20q-17 -8 -44.5 -16.5t-71.5 -12.5q-18 1 -36 7q-15 5 -30.5 16.5t-23.5 32.5zM289 231q-47 -12 -75.5 -22t-44.5 -18q-18 -9 -26 -16q-11 -10 -15 -25
q-4 -13 -1 -32t20 -46q13 -13 31 -21q15 -7 36.5 -8.5t50.5 11.5q12 5 23 15q8 8 15.5 21.5t7.5 33.5l-1 90q0 8 -3.5 11t-7.5 5t-10 1z" />
    <glyph glyph-name="f" unicode="f" horiz-adv-x="425" 
d="M170 457q-1 -5 1 -9q4 -9 14 -9h94q4 -6 6 -14q4 -16 -6 -34h-96q-7 0 -9 -8q-1 -4 -1 -8q-1 -76 -0.5 -165.5t5.5 -200.5q0 -6 -5 -9h-4h-71h-6q-5 2 -5 11q2 71 2.5 136t-0.5 116q-1 59 -2 112l-2 8q-4 8 -9 8h-33q-19 0 -23.5 2.5t-1.5 7.5t14 11q13 5 22.5 10l15.5 8
q6 4 10 8t7.5 9.5t3.5 13.5l-1 42q0 56 10 97t26.5 70.5t37 48.5t42.5 30q51 26 116 22q32 -3 55 -12q19 -7 30 -21t-3 -38q-6 -10 -16 -13q-8 -4 -18.5 -1.5t-23.5 15.5q-5 5 -10 11t-11 11q-10 9 -22.5 10.5t-27.5 1.5q-28 0 -53 -20q-11 -9 -20 -21.5t-16 -31.5
t-11.5 -46.5t-5.5 -66.5q-1 -20 -0.5 -36t0.5 -29q0 -15 1 -27z" />
    <glyph glyph-name="j" unicode="j" horiz-adv-x="286" 
d="M186 620q0 -23 -16 -39t-39 -16t-39 16t-16 39t16 39t39 16t39 -16t16 -39zM178 -8q3 -68 -15 -130q-8 -27 -19 -54t-28.5 -52t-43 -46.5t-62.5 -36.5q-5 1 -7 4q-7 5 -2 16q22 4 42 30q17 21 31 65t18 125q2 27 3 60.5t2 73.5q1 69 0 170.5t-6 245.5q0 2 1 4q2 5 9 5h65
q9 0 11 -6q1 -3 0 -5v-131v-149t1 -189z" />
    <glyph glyph-name="k" unicode="k" horiz-adv-x="503" 
d="M371 468q1 2 5 4q8 4 18 4h53q8 0 8 -4q-1 -2 -3 -3l-180 -166q-5 -4 -7 -8t-1 -10t7 -13l222 -265q2 -2 2 -4q0 -3 -6 -3h-83q-4 0 -8 2q-2 1 -3 3l-80.5 96l-67.5 79l-64 73q-4 4 -8 6q-7 3 -7 -10q0 -57 1.5 -115.5t3.5 -125.5q0 -2 -1 -4q-2 -4 -6 -4h-76q-4 0 -6 4
q-1 2 -1 5q5 193 5.5 328t-0.5 226q-1 54 -1.5 105t-2.5 86q-1 2 0 5q2 5 10 5h67q8 0 10 -6q1 -3 1 -6q-1 -58 -2 -127q-1 -59 -2 -137t0 -168q0 -14 7 -14q4 0 8 3l62 48l60.5 50.5t65.5 60.5z" />
    <glyph glyph-name="t" unicode="t" horiz-adv-x="368" 
d="M106 112q0 54 0.5 105.5t0.5 92.5v91q0 5 -1 9q-2 3 -4.5 6t-7.5 3h-44q-8 4 -9.5 8.5t-0.5 8.5q2 6 5 9q26 6 48 21q19 13 37 36.5t25 61.5q6 8 11.5 8.5t10.5 -1.5q5 -3 10 -7v-73q0 -13 8 -18q6 -2 9 -2h99q7 -10 8 -18.5t-1 -16.5q-2 -9 -7 -17h-105q-5 0 -7 -3
t-3 -6q-1 -4 -1 -9q-1 -39 -1 -84v-89t2 -108q0 -26 5.5 -42t14.5 -25t20 -12t22 -3q13 1 27.5 7t30.5 16q8 3 12 2t6 -6t-2 -16q-7 -21 -24.5 -30.5t-33.5 -14.5q-10 -2 -19.5 -3.5t-20.5 -1.5q-47 0 -72 18.5t-35 41.5q-12 26 -13 61z" />
    <glyph glyph-name="v" unicode="v" horiz-adv-x="482" 
d="M247 134q2 6 20 42l18 38.5l27.5 58l38 80.5l49.5 106q3 7 8 9q3 1 5 1h44q4 0 4 -5q0 -3 -1 -5l-91.5 -198l-62.5 -132q-29 -60 -49 -98q-5 -13 -9.5 -19t-7.5 -9q-4 -4 -7 -3q-2 0 -5 2q-2 2 -5.5 6t-7.5 12q-2 3 -22 51l-22.5 51.5l-34 78l-48.5 110l-65 147.5
q-4 8 1 10q2 1 5 1h72q6 0 10 -6q2 -3 2 -5q13 -39 32 -89l42 -102.5t60 -132.5z" />
    <glyph glyph-name="w" unicode="w" horiz-adv-x="704" 
d="M680 470q4 0 4 -5q0 -3 -1 -5l-92 -207t-56 -135q-24 -61 -36 -96q-5 -14 -10 -20.5t-8 -9.5q-4 -4 -7 -3q-2 0 -5 2l-6 6t-8 12q1 -2 -10 23l-30.5 70l-63.5 145l-36 -80l-25.5 -58l-17.5 -40t-11 -26q-10 -23 -8 -21q-5 -14 -10 -20.5t-8 -9.5q-4 -4 -7 -3q-2 0 -6 2
q-3 2 -6.5 6t-7.5 12q1 0 -19 47l-23 52l-35 80l-50.5 115l-68.5 156q-4 8 1 10q2 1 6 1h75q7 0 11 -6q2 -3 3 -5q9 -41 27 -94q14 -45 38 -108.5t59 -141.5q4 6 15 30l27 60.5t47 112.5l-30 66l-33 75q-4 8 1 10q2 1 5 1h61q7 0 11 -6q2 -3 3 -5q14 -41 35 -94
q17 -45 43.5 -108.5l61.5 -141.5l38 93l44.5 108.5l58.5 143.5q3 8 7 9q2 1 5 1h48v0z" />
    <glyph glyph-name="x" unicode="x" horiz-adv-x="500" 
d="M105 11q-4 -9 -8 -11q-2 -1 -3 -1h-52q-7 0 -3 7q2 3 5 7l51 69l50.5 70l54.5 79l-55.5 84l-48.5 71l-48 67q-2 2 -2 5q0 2 1.5 5t6.5 7h33h48q1 0 4 -1q4 -2 10 -11l39 -66l32.5 -53t27.5 -41q17 19 35 44l37 50.5l45 65.5q7 10 10 11q2 1 4 1h39q5 -2 7 -6v-4l-46 -59
l-48.5 -63.5l-56.5 -78.5l3 -5q26 -40 56 -81l58 -78l65 -85q3 -3 4 -6q2 -6 -8 -6l-30 1h-70q-1 0 -3 1q-4 2 -8 11l-39 66.5l-37 58.5l-39 56l-40 -58l-38.5 -58.5z" />
    <glyph glyph-name="z" unicode="z" horiz-adv-x="513" 
d="M319 413q6 6 0 8q-3 1 -6 1q-51 1 -95 1.5t-77 -0.5q-39 -1 -72 -2q-6 0 -8 6q-1 3 -1 6v28q0 2 2 5q2 2 5 3.5t9 1.5q39 -2 88 -3q42 -1 102 -0.5t136 3.5q6 0 9 -1.5t5 -3.5q2 -3 2 -5v-33v-4q0 -5 -4 -7q-1 -2 -6 -9l-88 -115l-83 -112l-85 -120q-3 -3 -4 -6
q-3 -5 2 -5q26 -1 42.5 -1.5t30.5 -0.5t29.5 0.5t39 1.5l59 2.5t89.5 3.5q11 0 15 -6q2 -3 2 -5v-32q0 -4 -1 -7q-2 -6 -9 -6q-88 2 -159.5 3t-123.5 0q-61 -1 -108 -3q-7 0 -9 6q-1 3 0 6v27q0 6 1 8t2 2l91 119l87 117z" />
    <glyph glyph-name="g" unicode="g" horiz-adv-x="579" 
d="M159 -19q-2 1 -3.5 2t-3.5 2t-4 1q-36 9 -55.5 24.5t-28.5 30t-11 25.5t-2 12q0 3 1 5q2 4 10 5q10 1 20 11t18.5 22.5t15 24.5t11.5 17q2 3 2 6.5t-1 6.5q-1 4 -3 6q-11 16 -20 35q-8 16 -15 37.5t-8 44.5q-2 36 5 62.5t20 46.5t29.5 33t34.5 22q41 19 96 21q28 0 58 -8
q29 -8 50 -21h124q1 0 1.5 -0.5t1.5 -0.5h1q0 -1 5.5 -6.5t5.5 -15.5q0 -13 -11 -21q-1 -1 -2 -1h-2h-68q10 -22 13.5 -45t4.5 -51v-13q0 -73 -45 -123q-23 -26 -57 -40.5t-74 -16.5q-25 -2 -44 1.5t-32 8.5q-15 5 -26 12q-3 0 -7 -4q-20 -14 -28.5 -28.5t-10.5 -26.5
q-3 -14 1 -27q2 -5 13 -8q15 -5 35 -5h223q39 0 70 -17q26 -14 48 -47t22 -96q0 -61 -36 -101q-30 -34 -72 -50.5t-80 -22.5q-45 -8 -92 -6q-111 0 -159 57q-15 17 -22.5 35.5t-10 34t-2 26t0.5 13.5q0 7 5 15t11.5 15.5t13 14t11.5 10.5l14 14.5l18 18.5zM262 449
q-18 -1 -31.5 -7.5t-24 -17t-17.5 -23.5t-12 -26q-11 -32 -15 -70q0 -62 16.5 -92.5t36.5 -43.5q24 -15 54 -14q29 1 48.5 16t31 37.5t16.5 49.5t5 52q0 56 -17 84.5t-37 40.5q-24 14 -54 14zM320 -251q36 0 62 7t43 19t27.5 27t15.5 31q11 37 3 84q-4 15 -14 26
q-8 10 -24 18.5t-43 8.5h-138q-47 0 -70 -19.5t-31 -42.5q-10 -27 -7 -62q2 -21 10.5 -36t21 -26t28.5 -17.5t32 -10.5q38 -10 84 -7z" />
    <glyph glyph-name="s" unicode="s" horiz-adv-x="414" 
d="M190 19q36 0 53.5 17.5t24.5 38.5q8 25 7 57q-1 18 -9 31t-18 22q-11 11 -25 18l-82 44v1q-26 15 -41 32.5t-22.5 33.5t-9 27t-1.5 12q-3 61 33 96q13 14 28.5 22t29 12t23.5 5t12 1q8 1 15 1.5t15 0.5q37 0 59 -7.5t32 -13.5q18 -11 21.5 -17t3.5 -8q3 -19 2.5 -28
t-0.5 -10v-2l-1 -2q-7 -10 -18 -10q-9 0 -16 6t-9 9l-1 1l-1 2q-11 17 -24.5 26.5t-26.5 14.5q-15 6 -30 8q-27 -3 -41.5 -13t-21 -21t-8 -19.5t-1.5 -9.5q0 -17 4 -33q4 -14 13 -29.5t29 -26.5h1l64 -34l20 -10.5t34 -24.5q55 -49 52 -114q0 -3 -0.5 -12t-3.5 -21.5
t-10.5 -27t-20.5 -28.5q-46 -50 -151 -52h-3q-38 0 -58 8t-31 14l-7 3h-1v1q-5 4 -13 11.5t-7 17.5q2 13 0 29l-2 18v4l1 3q5 9 14 9q15 0 26 -23q5 -17 17 -30q11 -11 30 -20.5t51 -9.5z" />
    <glyph glyph-name="y" unicode="y" horiz-adv-x="529" 
d="M156 -121q16 26 28 52.5t20 46.5q10 24 16 46q5 11 1 25l-4 14l-21 48l-33.5 76.5l-49.5 112l-68 153.5q-3 9 0 13q2 4 8 4h2h72q8 0 11.5 -5t4.5 -9q1 -2 9 -25.5t23.5 -64.5t39.5 -97.5t56 -124.5q0 -1 1 -1l2 1l38 77l47.5 102l62.5 135q5 11 17 12h44q5 0 7 -4
q2 -3 1 -7t-1 -5q-1 -1 -26.5 -50l-66 -131l-92.5 -190l-105 -227l-20 -37.5t-17 -27.5q-9 -13 -16 -22q-8 -8 -16.5 -12t-15.5 -6q-8 -2 -16 -1q-6 0 -11 4q-5 3 -10 11t-9 22q-2 9 2 19q4 8 13.5 16.5t30.5 14.5q5 2 12 7l13 13t16 22z" />
    <glyph glyph-name="uni0002" horiz-adv-x="0" 
 />
    <glyph glyph-name="oe" unicode="&#x153;" horiz-adv-x="879" 
d="M835 102q5 7 13.5 3.5t4.5 -12.5q-16 -45 -45.5 -67t-58.5 -32q-36 -11 -73 -11q-62 -2 -110 19q-26 11 -50.5 29.5t-44.5 50.5q-29 -46 -76.5 -71.5t-109.5 -27.5q-52 -2 -98 12.5t-81.5 45.5t-57 77.5t-24.5 108.5q-2 51 16 95.5t50.5 78.5t77.5 54.5t97 22.5
q69 2 122.5 -27t84.5 -80q12 19 29 37.5t39.5 33.5t52 26t67.5 15q51 3 92 -14q17 -8 33.5 -21t29.5 -33.5t21 -49.5t8 -69q0 -10 -10 -10h-303q-10 0 -14.5 -4t-6.5 -9q-3 -5 -2 -12q-1 -75 27 -124q12 -21 30.5 -40t45.5 -32.5t63.5 -18.5t84.5 3q7 1 13 3l12 4
q11 5 25.5 17t25.5 29zM525 335q-1 -3 -1 -5q0 -4 6 -4h145h25.5t21.5 1q17 2 32.5 6t14.5 22q0 35 -17.5 54t-37.5 27q-25 10 -55 9q-26 -2 -51 -12q-21 -10 -43.5 -32.5t-39.5 -65.5zM433 205q1 47 -5.5 82.5t-17.5 61.5t-26 43t-31 28q-37 26 -85 26q-78 -4 -117.5 -59.5
t-35.5 -148.5q2 -46 14.5 -87t34.5 -72t53 -48.5t69 -15.5q34 1 60 16.5t45 41t29.5 59.5t12.5 73z" />
    <glyph glyph-name="ae" unicode="&#xe6;" horiz-adv-x="666" 
d="M644 376q1 -7 0 -13q-2 -13 -15 -16l-224 -67q-11 -4 -21 -9q-8 -5 -15 -13t-8 -20q-2 -27 0 -53q2 -22 6.5 -44t15.5 -36q20 -26 48 -40q24 -12 59.5 -14.5t82.5 20.5q11 5 25.5 17.5t25.5 29.5q5 7 13.5 3.5t4.5 -12.5q-16 -45 -45.5 -67t-58.5 -32q-36 -11 -73 -11
q-24 0 -48 8t-44 18q-23 11 -44 26q-15 11 -21 11q-4 0 -5 -2q-17 -21 -42 -36q-21 -13 -52 -22t-73 -4q-16 4 -32 12q-14 7 -28 19.5t-22 33.5q-11 26 -13 48t2.5 40t14.5 31.5t22 24.5q28 25 71 39l132 40q10 4 13 11q2 3 2 6v89q1 19 -7 34q-7 13 -22.5 23.5t-46.5 10.5
q-21 -2 -37 -7q-14 -5 -25 -14.5t-11 -26.5q0 -10 -1 -18q-2 -16 -5 -26q-5 -9 -11 -17q-5 -7 -12 -13t-14 -8q-12 -4 -22 0q-4 2 -8 5q-3 2 -4.5 5.5t-2.5 6.5l-2 8q-2 8 1 18t7 19q4 10 11 20q14 24 36 42q19 16 48.5 29.5t74.5 13.5q24 -1 45 -8q18 -7 35.5 -21t25.5 -41
q16 17 36.5 31t48.5 26q23 8 43.5 11t40.5 1q27 -4 51 -17q20 -12 41 -35.5t32 -67.5zM357 319q0 -2 1 -4q2 -3 6 -2l126 38q12 4 22.5 7t18.5 6q14 7 26.5 14t7.5 23q-14 29 -33 40.5t-39 13.5q-21 3 -48 -5q-21 -7 -41 -23q-16 -14 -29.5 -40t-17.5 -68zM249 63
q12 5 23 15q8 8 15.5 21.5t7.5 33.5l-1 88q0 8 -3.5 11t-7.5 5t-10 1q-47 -12 -75.5 -22t-44.5 -18q-18 -9 -26 -16q-11 -10 -15 -24q-4 -12 -1 -31t20 -46q11 -14 28 -22q14 -7 36.5 -8.5t53.5 12.5z" />
    <glyph glyph-name="space" unicode=" " horiz-adv-x="305" 
 />
    <glyph glyph-name="E" unicode="E" horiz-adv-x="529" 
d="M132 57q0 -3 1 -6q2 -5 11 -5h180h80t92 1q2 0 5 -1q5 -3 5 -7v-27q0 -9 -6 -11q-3 -2 -6 -1q-86 2 -162 2.5t-133 -0.5q-67 -1 -124 -2q-14 0 -20.5 2t-9.5 5q-4 4 -3 8q2 102 3 213q1 95 0.5 212t-2.5 235q-1 8 2 13q2 5 8.5 8.5t18.5 3.5q58 -2 123 -2
q56 -1 127.5 -0.5t147.5 2.5q3 0 6 -1q6 -2 6 -9v-28q0 -8 -6 -10q-3 -1 -6 -1q-67 2 -125.5 1.5t-103.5 -0.5q-52 -1 -97 -1q-3 1 -5 -1t-3.5 -5.5t-1.5 -10.5q-3 -42 -3.5 -79.5t0.5 -67.5q1 -35 3 -66q-1 -4 0 -7q2 -6 6 -6q37 -1 80 -2q37 -1 84.5 -1t101.5 2q4 0 8 -1
q3 -1 6 -3t3 -6v-32q0 -5 -8 -7q-4 -1 -7 -1q-49 1 -97 1.5t-86 0.5h-85q-3 -1 -5 -3q-4 -4 -4 -13q-1 -42 -1 -89v-91.5t2 -105.5z" />
    <glyph glyph-name="G" unicode="G" horiz-adv-x="737" 
d="M621 582q-24 38 -59.5 56.5t-68.5 25.5q-39 8 -81 6q-75 -2 -134 -35q-25 -14 -49 -35.5t-42.5 -54t-30 -76t-11.5 -101.5q0 -65 12 -113.5t32 -84t45.5 -59.5t52.5 -39q62 -35 143 -38q40 2 73 6q28 4 51 11.5t23 21.5v10t1 14q2 33 2 65.5v58.5v58q0 3 -1 6q-2 6 -7 6
q-14 1 -35.5 1h-41.5h-48q-3 0 -6 3q-2 2 -4 6.5t-2 13.5q0 11 2.5 16t6.5 7q4 3 10 3q38 0 76 -1q32 -1 67.5 -1.5t63.5 -0.5q2 0 4 -2t3.5 -5t1.5 -9q-2 -48 -1.5 -94t0.5 -83q0 -43 1 -82q-7 -18 -37 -34q-25 -13 -73.5 -23.5t-132.5 -10.5q-93 0 -164 30.5t-119 82
t-72.5 119t-24.5 141.5t31 136.5t84 108.5t123 71.5t149 25.5q37 0 75 -7q32 -6 71 -19.5t75 -38.5q4 -2 7 -6q6 -8 6 -13q0 -8 -4 -16q-3 -7 -8.5 -15t-14.5 -16q-5 -4 -9 -4t-6 2q-4 2 -5 5z" />
    </font>
</defs>
</svg>
